<svg xmlns="http://www.w3.org/2000/svg" width="1280" height="720" viewBox="0 0 1280 720" role="img" aria-labelledby="title desc">
  <title id="title">JDSL TUI screenshot placeholder</title>
  <desc id="desc">Placeholder graphic for a future captured JDSL TUI screenshot.</desc>
  <defs>
    <linearGradient id="bg" x1="0" x2="1" y1="0" y2="1">
      <stop offset="0%" stop-color="#1a1a1a"/>
      <stop offset="100%" stop-color="#0c0d10"/>
    </linearGradient>
    <linearGradient id="panel" x1="0" x2="1" y1="0" y2="0">
      <stop offset="0%" stop-color="#22252d"/>
      <stop offset="100%" stop-color="#171b21"/>
    </linearGradient>
  </defs>
  <rect width="1280" height="720" fill="url(#bg)"/>
  <rect x="40" y="34" width="1200" height="58" rx="10" fill="#2b2f36" stroke="#4c566a"/>
  <text x="90" y="71" fill="#f5f1d8" font-family="sans-serif" font-size="30" font-weight="700">JDSL</text>
  <text x="950" y="71" fill="#a8b0bd" font-family="sans-serif" font-size="22">authoring workbench</text>

  <rect x="40" y="110" width="280" height="560" rx="14" fill="url(#panel)" stroke="#4c566a"/>
  <rect x="356" y="110" width="520" height="560" rx="14" fill="url(#panel)" stroke="#4c566a"/>
  <rect x="910" y="110" width="330" height="560" rx="14" fill="url(#panel)" stroke="#4c566a"/>

  <rect x="80" y="152" width="200" height="26" rx="8" fill="#4c566a"/>
  <rect x="80" y="206" width="170" height="20" rx="8" fill="#3a3f4d"/>
  <rect x="80" y="246" width="185" height="20" rx="8" fill="#3a3f4d"/>
  <rect x="80" y="286" width="155" height="20" rx="8" fill="#3a3f4d"/>
  <rect x="80" y="326" width="205" height="20" rx="8" fill="#3a3f4d"/>
  <rect x="80" y="372" width="190" height="20" rx="8" fill="#3a3f4d"/>

  <rect x="390" y="152" width="180" height="28" rx="8" fill="#4c566a"/>
  <rect x="390" y="210" width="440" height="24" rx="8" fill="#3a3f4d"/>
  <rect x="390" y="252" width="450" height="24" rx="8" fill="#3a3f4d"/>
  <rect x="390" y="294" width="335" height="24" rx="8" fill="#3a3f4d"/>
  <rect x="390" y="348" width="425" height="180" rx="12" fill="#1a1f29" stroke="#4c566a"/>
  <rect x="390" y="548" width="290" height="24" rx="8" fill="#3a3f4d"/>

  <rect x="948" y="152" width="250" height="28" rx="8" fill="#4c566a"/>
  <rect x="948" y="212" width="222" height="18" rx="8" fill="#3a3f4d"/>
  <rect x="948" y="250" width="238" height="18" rx="8" fill="#3a3f4d"/>
  <rect x="948" y="288" width="210" height="18" rx="8" fill="#3a3f4d"/>
  <rect x="948" y="330" width="250" height="86" rx="10" fill="#1a1f29" stroke="#4c566a"/>
  <rect x="948" y="440" width="225" height="18" rx="8" fill="#3a3f4d"/>
  <rect x="948" y="478" width="244" height="18" rx="8" fill="#3a3f4d"/>
  <rect x="948" y="516" width="238" height="18" rx="8" fill="#3a3f4d"/>

  <text x="640" y="640" text-anchor="middle" fill="#d8dee9" font-family="sans-serif" font-size="36" font-weight="700">TUI screenshot placeholder</text>
  <text x="640" y="676" text-anchor="middle" fill="#93a7bf" font-family="sans-serif" font-size="22">replace with a captured workbench shot from jdsl tui</text>
</svg>
